<svg xmlns="http://www.w3.org/2000/svg" xmlns:xlink="http://www.w3.org/1999/xlink" width="500" zoomAndPan="magnify" viewBox="0 0 375 374.999991" height="500" preserveAspectRatio="xMidYMid meet" version="1.0"><path fill="#6acff6" d="M 217.234375 236.859375 C 211.355469 236.859375 206.589844 228.675781 206.589844 218.585938 C 206.589844 208.492188 211.355469 200.3125 217.234375 200.3125 C 223.113281 200.3125 227.878906 208.492188 227.878906 218.585938 C 227.878906 228.675781 223.113281 236.859375 217.234375 236.859375 Z M 157.675781 236.859375 C 151.800781 236.859375 147.035156 228.675781 147.035156 218.585938 C 147.035156 208.492188 151.800781 200.3125 157.675781 200.3125 C 163.558594 200.3125 168.324219 208.492188 168.324219 218.585938 C 168.324219 228.675781 163.558594 236.859375 157.675781 236.859375 Z M 241.539062 196.390625 L 133.375 196.390625 C 121.117188 196.390625 111.179688 206.328125 111.179688 218.585938 C 111.179688 230.84375 121.117188 240.78125 133.375 240.78125 L 241.539062 240.78125 C 253.796875 240.78125 263.734375 230.84375 263.734375 218.585938 C 263.734375 206.328125 253.796875 196.390625 241.539062 196.390625 " fill-opacity="1" fill-rule="nonzero"/><path fill="#6acff6" d="M 294.800781 265.617188 C 293.109375 269.925781 291.160156 274.105469 288.980469 278.140625 C 269.5 314.234375 231.34375 338.757812 187.457031 338.757812 C 138.65625 338.757812 96.941406 308.441406 80.109375 265.617188 C 60.960938 261.144531 46.691406 243.972656 46.691406 223.457031 C 46.691406 202.941406 60.960938 185.773438 80.109375 181.300781 C 89.683594 156.9375 107.3125 136.628906 129.714844 123.640625 L 129.714844 57.695312 C 126.265625 55.695312 123.941406 51.976562 123.941406 47.703125 C 123.941406 41.324219 129.109375 36.15625 135.488281 36.15625 C 141.867188 36.15625 147.035156 41.324219 147.035156 47.703125 C 147.035156 51.976562 144.710938 55.695312 141.261719 57.695312 L 141.261719 117.792969 C 143.175781 116.957031 145.121094 116.171875 147.085938 115.4375 C 159.652344 110.738281 173.253906 108.160156 187.457031 108.160156 C 203.886719 108.160156 219.503906 111.601562 233.652344 117.792969 L 233.652344 57.695312 C 230.203125 55.695312 227.878906 51.976562 227.878906 47.703125 C 227.878906 41.324219 233.046875 36.15625 239.425781 36.15625 C 245.804688 36.15625 250.972656 41.324219 250.972656 47.703125 C 250.972656 51.976562 248.648438 55.695312 245.199219 57.695312 L 245.199219 123.640625 C 267.601562 136.628906 285.230469 156.9375 294.800781 181.300781 C 313.953125 185.773438 328.222656 202.941406 328.222656 223.457031 C 328.222656 243.972656 313.953125 261.144531 294.800781 265.617188 Z M 187.457031 -0.0429688 C 83.902344 -0.0429688 -0.0429688 83.902344 -0.0429688 187.457031 C -0.0429688 291.011719 83.902344 374.957031 187.457031 374.957031 C 291.011719 374.957031 374.957031 291.011719 374.957031 187.457031 C 374.957031 83.902344 291.011719 -0.0429688 187.457031 -0.0429688 " fill-opacity="1" fill-rule="nonzero"/></svg>